<svg width="265" height="353" viewBox="0 0 265 353" fill="none" xmlns="http://www.w3.org/2000/svg">
<path d="M34.4121 248.947L34.4141 248.951C43.1139 266.186 61.1869 276.665 80.5264 275.551L80.5381 275.55L94.3203 274.71L105.858 282.352L105.874 282.362L105.891 282.373C108.563 284.101 111.359 285.573 114.251 286.763L89.7285 344.951L89.7246 344.959C88.6418 347.546 86.2549 349.276 83.4805 349.511C80.6547 349.75 77.9911 348.46 76.5088 346.146L76.4912 346.119L54.2695 312.129L53.0439 310.255L50.8281 310.582L12.1396 316.301C9.44439 316.679 6.72791 315.593 5.00586 313.442C3.56041 311.637 3.10109 309.155 3.74609 306.842L4.12012 305.956L30.9824 242.13L34.4121 248.947ZM260.943 305.959C261.97 308.447 261.597 311.327 259.935 313.51C258.307 315.647 255.588 316.732 252.913 316.31L252.896 316.307L252.88 316.305L214.165 310.582L211.951 310.255L210.726 312.126L188.504 346.048L188.342 346.291C186.835 348.47 184.251 349.674 181.514 349.442C178.772 349.21 176.359 347.438 175.264 344.881H175.265L150.747 286.773C153.629 285.603 156.439 284.147 159.143 282.347L159.142 282.346L170.672 274.71L184.455 275.55L184.467 275.551C203.806 276.665 221.879 266.186 230.579 248.951L230.582 248.947L234.014 242.124L260.943 305.959ZM121.871 6.70703C128.29 2.45161 136.703 2.45165 143.122 6.70703L143.129 6.71191L143.136 6.71582L155.419 14.7822L155.435 14.792C160.186 17.8777 165.751 19.3926 171.408 19.0742H171.416L171.425 19.0732L186.123 18.1768C193.827 17.7106 201.073 21.9113 204.52 28.7979L204.522 28.8047L211.147 41.9736V41.9727C213.704 47.0779 217.846 51.1247 222.835 53.6562L222.842 53.6602L222.848 53.6631L236.167 60.3506L236.174 60.3545C243.069 63.7989 247.27 71.0359 246.804 78.7275L245.907 93.4131L245.906 93.4209V93.4287C245.588 99.0685 247.096 104.712 250.208 109.415L250.211 109.419L258.354 121.691L258.354 121.693C262.613 128.104 262.613 136.506 258.354 142.916L258.349 142.925L250.205 155.266L250.193 155.285C247.104 160.033 245.587 165.595 245.906 171.249V171.257L245.907 171.265L246.804 185.95C247.27 193.642 243.069 200.88 236.174 204.324L236.167 204.327L222.992 210.942C217.881 213.496 213.828 217.635 211.292 222.622L211.289 222.629L211.285 222.636L204.592 235.942L204.588 235.948C201.141 242.835 193.896 247.036 186.191 246.569H186.192L171.493 245.673H171.485L171.478 245.672L170.948 245.647C165.482 245.45 160.04 246.957 155.48 249.969L155.477 249.972L143.193 258.107L143.191 258.108C136.773 262.364 128.358 262.364 121.939 258.108L121.931 258.103L109.578 249.967L109.568 249.961L109.559 249.954C104.807 246.869 99.2419 245.353 93.585 245.672L93.5771 245.673H93.5684L78.8691 246.569C71.1651 247.035 63.921 242.835 60.4746 235.948L60.4707 235.942L53.8457 222.773C51.289 217.668 47.1467 213.622 42.1582 211.091L42.1523 211.087L42.1455 211.084L28.8262 204.396L28.8193 204.393C21.9245 200.948 17.7235 193.711 18.1895 186.02L19.0869 171.334V171.326L19.0879 171.317C19.4059 165.678 17.8971 160.034 14.7852 155.331L6.7207 143.005L6.71484 142.995L6.70801 142.984L6.32129 142.378C2.45386 136.051 2.58277 127.972 6.70801 121.762L6.71191 121.756L6.71582 121.749L14.79 109.477L14.7949 109.47L14.7998 109.462C17.889 104.714 19.4067 99.1521 19.0879 93.498L19.0869 93.4902V93.4814L18.1895 78.7959C17.7236 71.1044 21.9245 63.8672 28.8193 60.4229L28.8262 60.4199L42.0078 53.8008L42.0234 53.793L42.04 53.7842C47.0977 51.1786 51.2273 47.0626 53.7764 41.9727L53.7773 41.9736L60.4023 28.8047L60.4053 28.7979C63.8518 21.9116 71.0967 17.7108 78.8008 18.1768V18.1777L93.5 19.0732L93.5078 19.0742H93.5156C99.1585 19.3918 104.806 17.8859 109.513 14.7773L109.512 14.7764L121.851 6.7207L121.86 6.71387L121.871 6.70703ZM132.497 73.7168C116.928 73.7168 101.995 79.8957 90.9844 90.8955C79.9741 101.895 73.7882 116.816 73.7881 132.373C73.7881 147.931 79.9742 162.851 90.9844 173.851C101.995 184.85 116.928 191.029 132.497 191.029C148.066 191.029 162.999 184.85 174.009 173.851C185.019 162.851 191.205 147.931 191.205 132.373C191.205 116.816 185.019 101.895 174.009 90.8955C162.999 79.8959 148.066 73.7169 132.497 73.7168Z" fill="#DC6997" stroke="#639BDF" stroke-width="7"/>
<ellipse cx="132" cy="133" rx="67" ry="65" fill="url(#paint0_linear_868_16)"/>
<path d="M68.7068 108.221C72.6311 99.8524 75.6916 92.7603 84.1296 84.8775C92.9355 77.5587 94.691 76.8543 106.52 71.5577C115.529 67.8946 125.329 66.8814 132 66.9699C134.307 66.9808 136.241 67.0812 137.72 67.1522C143.483 67.5895 144.055 68.1187 151.942 70.1499C159.772 72.4851 164.249 74.8591 170.114 78.8806C176.565 82.2941 191.078 98.9772 193.646 106.697C197.155 113.863 198.687 122.936 198.937 128.33C199.041 130.027 199.051 131.341 199.04 132.366C199.035 132.799 199.015 133 198.997 133C198.997 133 198.997 133 198.997 133C198.997 133 198.997 133 198.997 133C198.997 133 198.997 133 198.997 133C198.973 133 198.952 132.689 198.941 132.134C198.89 129.458 198.62 125.419 197.594 120.797C195.318 112.32 195.54 111.086 189.727 100.717C183.241 90.8026 178.033 85.4988 166.338 78.0307C154.265 71.6604 150.737 70.4454 132 69.0835C131.751 69.0778 131.499 69.0732 131.245 69.0698C111.809 70.0719 109.306 72.0231 93.2617 82.2426C76.8556 93.0897 66.4905 116.861 66.6775 128.605C66.5849 130.021 66.5384 131.469 66.5467 133C66.5467 133 66.5467 133 66.5467 133C66.4999 144.019 70.0505 157.99 78.6347 169.789C88.0391 183.499 106.944 194.593 125.254 196.357C127.391 196.607 129.652 196.766 132 196.806C149.806 197.828 170.106 187.571 177.651 180.017C186.384 171.669 188.242 169.044 193.338 158.573C196.121 152.46 198.535 143.403 198.88 135.55C199.024 131.603 199.134 132.502 199.025 136.477C198.786 142.313 197.678 147.001 197.012 149.929C195.562 155.758 194.843 158.332 191.049 164.947C187.041 171.42 184.935 174.384 181.9 177.658C178.406 180.311 179.922 182.466 159.874 193.107C148.725 198.13 139.27 199.182 132 199.313C125.686 199.381 120.862 198.678 116.932 197.884C108.345 196.571 91.3789 188.757 81.7704 178.19C72.1163 169.822 62.313 146.66 63.2974 133C63.2974 133 63.2974 133 63.2974 133C63.2808 131.279 63.3267 129.764 63.3942 128.439C64.4591 116.849 65.2594 116.85 68.7068 108.221Z" fill="#FFEE59"/>
<defs>
<linearGradient id="paint0_linear_868_16" x1="132" y1="68" x2="132" y2="198" gradientUnits="userSpaceOnUse">
<stop offset="0.221154" stop-color="#760A4B"/>
<stop offset="0.557692" stop-color="#A1366C"/>
<stop offset="0.725962" stop-color="#B64C7C"/>
<stop offset="0.894231" stop-color="#CB628C"/>
</linearGradient>
</defs>
</svg>
