<svg width="293" height="362" viewBox="0 0 293 362" fill="none" xmlns="http://www.w3.org/2000/svg">
<path d="M146.503 112.332C150.558 112.332 154.448 113.943 157.315 116.811C160.183 119.678 161.794 123.568 161.794 127.624C161.794 131.68 160.183 135.569 157.315 138.437C154.448 141.304 150.558 142.915 146.503 142.915C142.447 142.915 138.557 141.304 135.689 138.437C132.822 135.569 131.211 131.679 131.211 127.624C131.211 123.568 132.822 119.678 135.689 116.811C138.557 113.943 142.447 112.332 146.503 112.332Z" fill="#FFEE59" stroke="#366DB3" stroke-width="6"/>
<path d="M146.506 3.14844C153.46 3.14844 160.324 4.72415 166.582 7.75781C172.84 10.7916 178.329 15.2043 182.637 20.6641L182.638 20.666C185.974 24.888 191.259 27.0627 196.583 26.4512L196.593 26.4492C203.499 25.6334 210.501 26.3942 217.071 28.6729C223.642 30.9515 229.61 34.689 234.528 39.6055C239.447 44.5221 243.187 50.4899 245.468 57.0596C247.748 63.628 248.511 70.6279 247.698 77.5332C247.383 80.1585 247.748 82.8207 248.757 85.2646C249.767 87.7096 251.388 89.8548 253.465 91.4932C258.924 95.8007 263.337 101.289 266.371 107.547C269.405 113.805 270.98 120.669 270.98 127.623C270.98 134.577 269.405 141.441 266.371 147.699C263.337 153.957 258.925 159.446 253.465 163.754C251.388 165.392 249.767 167.537 248.757 169.981C247.748 172.424 247.383 175.085 247.697 177.709V177.71C248.514 184.618 247.754 191.621 245.475 198.193C243.195 204.765 239.455 210.735 234.536 215.653C229.617 220.572 223.648 224.312 217.076 226.592C210.504 228.871 203.501 229.631 196.593 228.814H196.592C193.968 228.5 191.307 228.865 188.864 229.874C186.572 230.821 184.544 232.305 182.949 234.198L182.638 234.58C178.326 240.034 172.836 244.442 166.578 247.472C160.321 250.502 153.458 252.075 146.506 252.075C139.553 252.075 132.691 250.502 126.434 247.472C120.371 244.536 115.029 240.308 110.781 235.088L110.374 234.58C108.741 232.505 106.603 230.884 104.164 229.871C101.723 228.858 99.0632 228.488 96.4385 228.797H96.4375C89.5312 229.613 82.5294 228.853 75.959 226.574C69.3886 224.296 63.4202 220.557 58.502 215.641C53.5836 210.724 49.8434 204.756 47.5625 198.187C45.2817 191.617 44.5195 184.616 45.333 177.709L45.332 177.708C45.644 175.081 45.2759 172.418 44.2627 169.975C43.2489 167.53 41.623 165.386 39.542 163.75C34.0845 159.443 29.6735 153.955 26.6406 147.699C23.607 141.441 22.0313 134.577 22.0312 127.623C22.0313 120.669 23.6069 113.805 26.6406 107.547C29.6743 101.289 34.0873 95.8007 39.5469 91.4932L39.5459 91.4922C41.6251 89.8568 43.2495 87.7151 44.2627 85.2715C45.2761 82.8275 45.6442 80.1643 45.332 77.5371H45.333C44.5195 70.6305 45.2816 63.6293 47.5625 57.0596C49.8434 50.4899 53.5837 44.5221 58.502 39.6055C63.4202 34.689 69.3887 30.9514 75.959 28.6729C82.5295 26.3942 89.5311 25.6334 96.4375 26.4492L96.4385 26.4502C99.0632 26.7591 101.723 26.3886 104.164 25.375C106.603 24.3619 108.743 22.7399 110.376 20.6641C114.684 15.2045 120.172 10.7915 126.43 7.75781C132.687 4.72412 139.552 3.14845 146.506 3.14844ZM146.506 69.748C131.156 69.7481 116.436 75.8456 105.582 86.6992C94.7284 97.5529 88.6309 112.274 88.6309 127.623C88.6309 142.972 94.7284 157.693 105.582 168.547C116.436 179.401 131.156 185.498 146.506 185.498C161.855 185.498 176.576 179.401 187.43 168.547C198.283 157.693 204.381 142.972 204.381 127.623C204.381 112.274 198.283 97.5529 187.43 86.6992C176.576 75.8456 161.855 69.748 146.506 69.748Z" fill="#DC6997" stroke="#366DB3" stroke-width="6"/>
<path d="M26.8818 244.242C34.1752 251.913 42.7956 258.223 52.3428 262.858C63.1301 268.096 74.8664 271.082 86.8369 271.641C98.9609 282.719 113.934 290.165 130.048 293.161L110.749 347.955C109.802 350.621 108.134 352.973 105.93 354.747C103.724 356.523 101.067 357.651 98.2578 358.006C95.4486 358.361 92.5958 357.93 90.0176 356.759C87.4408 355.589 85.2383 353.726 83.6572 351.379H83.6582L62.7324 320.155L61.46 318.257L23.623 330.869C20.9266 331.767 18.0331 331.895 15.2676 331.24C12.5019 330.585 9.97318 329.172 7.96582 327.16C5.95867 325.148 4.55177 322.617 3.90332 319.85C3.25494 317.083 3.39065 314.189 4.29492 311.495L26.8818 244.242ZM288.438 311.495C289.338 314.188 289.47 317.077 288.82 319.841C288.17 322.605 286.763 325.135 284.756 327.145C282.749 329.154 280.223 330.565 277.459 331.22C274.696 331.874 271.804 331.747 269.109 330.851H269.11L231.273 318.238L230.001 320.137L209.077 351.358C207.497 353.712 205.293 355.58 202.713 356.754C200.133 357.928 197.277 358.361 194.465 358.006C191.652 357.651 188.993 356.521 186.786 354.742C184.717 353.075 183.121 350.898 182.15 348.431L181.965 347.934L162.673 293.213C178.893 290.253 193.972 282.785 206.17 271.641C218.085 271.087 229.769 268.128 240.517 262.938C250.034 258.341 258.636 252.081 265.926 244.468L288.438 311.495Z" fill="#DC6997" stroke="#366DB3" stroke-width="6"/>
</svg>
