<svg width="103" height="72" viewBox="0 0 103 72" fill="none" xmlns="http://www.w3.org/2000/svg">
<path d="M102.998 63V9C102.998 4.02 98.9775 0 93.9975 0H9.9375C4.9575 0 0.9375 4.02 0.9375 9V63C0.9375 67.98 4.9575 72 9.9375 72H93.9975C98.9775 72 102.998 67.98 102.998 63ZM95.1375 8.34C97.1175 10.32 96.0375 12.36 94.9575 13.38L70.5975 35.7L93.9975 60.06C94.7175 60.9 95.1975 62.22 94.3575 63.12C93.5775 64.08 91.7775 64.02 90.9975 63.42L64.7775 41.04L51.9375 52.74L39.1575 41.04L12.9375 63.42C12.1575 64.02 10.3575 64.08 9.5775 63.12C8.7375 62.22 9.2175 60.9 9.9375 60.06L33.3375 35.7L8.9775 13.38C7.8975 12.36 6.8175 10.32 8.7975 8.34C10.7775 6.36 12.8175 7.32 14.4975 8.76L51.9375 39L89.4375 8.76C91.1175 7.32 93.1575 6.36 95.1375 8.34Z" fill="white"/>
</svg>
