<svg width="90" height="60" viewBox="0 0 90 60" fill="none" xmlns="http://www.w3.org/2000/svg">
<path d="M5.00002 60C3.58335 60 2.39668 59.52 1.44002 58.56C0.483351 57.6 0.00335057 56.4133 1.72414e-05 55C-0.00331609 53.5867 0.476684 52.4 1.44002 51.44C2.40335 50.48 3.59002 50 5.00002 50H85C86.4167 50 87.605 50.48 88.565 51.44C89.525 52.4 90.0034 53.5867 90 55C89.9967 56.4133 89.5167 57.6017 88.56 58.565C87.6034 59.5283 86.4167 60.0067 85 60H5.00002ZM5.00002 35C3.58335 35 2.39668 34.52 1.44002 33.56C0.483351 32.6 0.00335057 31.4133 1.72414e-05 30C-0.00331609 28.5867 0.476684 27.4 1.44002 26.44C2.40335 25.48 3.59002 25 5.00002 25H85C86.4167 25 87.605 25.48 88.565 26.44C89.525 27.4 90.0034 28.5867 90 30C89.9967 31.4133 89.5167 32.6017 88.56 33.565C87.6034 34.5283 86.4167 35.0067 85 35H5.00002ZM5.00002 10C3.58335 10 2.39668 9.52 1.44002 8.56C0.483351 7.6 0.00335057 6.41333 1.72414e-05 5C-0.00331609 3.58667 0.476684 2.4 1.44002 1.44C2.40335 0.480001 3.59002 0 5.00002 0H85C86.4167 0 87.605 0.480001 88.565 1.44C89.525 2.4 90.0034 3.58667 90 5C89.9967 6.41333 89.5167 7.60167 88.56 8.565C87.6034 9.52833 86.4167 10.0067 85 10H5.00002Z" fill="#CB618C"/>
</svg>
